<?xml version="1.0" encoding="UTF-8" standalone="no"?>
<!DOCTYPE svg PUBLIC "-//W3C//DTD SVG 1.1//EN" "http://www.w3.org/Graphics/SVG/1.1/DTD/svg11.dtd">
<!-- Generated by Microsoft Visio, SVG Export Solar System Odyssey.svg MissionControl -->
<svg xmlns="http://www.w3.org/2000/svg" xmlns:xlink="http://www.w3.org/1999/xlink" xmlns:ev="http://www.w3.org/2001/xml-events"
		xmlns:v="http://schemas.microsoft.com/visio/2003/SVGExtensions/" width="11.6929in" height="8.26772in"
		viewBox="0 0 841.89 595.276" xml:space="preserve" color-interpolation-filters="sRGB" class="st12">
	<v:documentProperties v:langID="2057" v:metric="true" v:viewMarkup="false">
		<v:userDefs>
			<v:ud v:nameU="msvNoAutoConnect" v:val="VT0(1):26"/>
		</v:userDefs>
	</v:documentProperties>

	<style type="text/css">
	<![CDATA[
		.st1 {fill:#ffffff;stroke:#000000;stroke-linecap:round;stroke-linejoin:round;stroke-width:0.75}
		.st2 {fill:#000000;stroke:#000000;stroke-linecap:round;stroke-linejoin:round;stroke-width:0.75}
		.st3 {fill:none;stroke:#000000;stroke-linecap:round;stroke-linejoin:round;stroke-width:0.75}
		.st4 {fill:none;stroke:none;stroke-linecap:round;stroke-linejoin:round;stroke-width:0.75}
		.st5 {fill:#000000;font-family:Calibri;font-size:1.00001em}
		.st6 {fill:#7f7f7f;stroke:#000000;stroke-linecap:round;stroke-linejoin:round;stroke-width:0.75}
		.st7 {marker-end:url(#mrkr42-59);stroke:#000000;stroke-linecap:round;stroke-linejoin:round;stroke-width:0.75}
		.st8 {fill:#000000;fill-opacity:1;stroke:#000000;stroke-opacity:1;stroke-width:0.22935779816514}
		.st9 {marker-end:url(#mrkr41-85);stroke:#7f7f7f;stroke-linecap:round;stroke-linejoin:round;stroke-width:0.75}
		.st10 {fill:#7f7f7f;fill-opacity:1;stroke:#7f7f7f;stroke-opacity:1;stroke-width:0.22935779816514}
		.st11 {font-size:1em}
		.st12 {fill:none;fill-rule:evenodd;font-size:12px;overflow:visible;stroke-linecap:square;stroke-miterlimit:3}
	]]>
	</style>

	<defs id="Markers">
		<g id="lend42">
			<path
					d="M 0 0.75 C -0.414214 0.75 -0.75 0.414214 -0.75 0 -0.75 -0.414214 -0.414214 -0.75 0 -0.75 0.414214 -0.75 0.75 -0.414214 0.75 0 0.75 0.414214 0.414214 0.75 0 0.75 Z "
					style="stroke:none"/>
		</g>
		<marker id="mrkr42-59" class="st8" v:arrowType="42" v:arrowSize="2" v:setback="3.27" refX="-3.27" orient="auto"
				markerUnits="strokeWidth" overflow="visible">
			<use xlink:href="#lend42" transform="scale(-4.36,-4.36) "/>
		</marker>
		<g id="lend41">
			<path
					d="M 0.75 0.75 C 0.335786 0.75 0 0.414214 0 0 0 -0.414214 0.335786 -0.75 0.75 -0.75 1.16421 -0.75 1.5 -0.414214 1.5 0 1.5 0.414214 1.16421 0.75 0.75 0.75 Z "
					style="stroke-linecap:round;stroke-linejoin:round;fill:none"/>
		</g>
		<marker id="mrkr41-85" class="st10" v:arrowType="41" v:arrowSize="2" v:setback="6.54" refX="-6.54" orient="auto"
				markerUnits="strokeWidth" overflow="visible">
			<use xlink:href="#lend41" transform="scale(-4.36,-4.36) "/>
		</marker>
	</defs>
	<g v:mID="0" v:index="1" v:groupContext="foregroundPage">
		<title>MissionControl</title>
		<v:pageProperties v:drawingScale="0.0393701" v:pageScale="0.0393701" v:drawingUnits="24" v:shadowOffsetX="8.50394"
				v:shadowOffsetY="-8.50394"/>
		<g id="shape1-1" v:mID="1" v:groupContext="shape" transform="translate(147.402,-45.3543)">
			<title>Sheet.1</title>
			<rect x="0" y="96.378" width="540.85" height="498.898" class="st1"/>
		</g>
		<g id="shape2-3" v:mID="2" v:groupContext="shape" transform="translate(147.402,-530.646)">
			<title>Sheet.2</title>
			<rect x="0" y="581.669" width="540.85" height="13.6063" class="st2"/>
		</g>
		<g id="shape3-5" v:mID="3" v:groupContext="shape" transform="translate(290.551,-253.909)">
			<title>Sheet.3</title>
			<rect x="0" y="348.87" width="389.764" height="246.406" rx="5.66929" ry="5.66929" class="st2"/>
		</g>
		<g id="shape4-7" v:mID="4" v:groupContext="shape" transform="translate(147.402,-510.236)">
			<title>Sheet.4</title>
			<rect x="0" y="576.354" width="540.85" height="18.9213" class="st3"/>
		</g>
		<g id="shape5-9" v:mID="5" v:groupContext="shape" transform="translate(630.709,-511.193)">
			<title>Sheet.5</title>
			<rect x="0" y="578.268" width="52.4409" height="17.0079" rx="5.66929" ry="5.66929" class="st3"/>
		</g>
		<g id="shape6-11" v:mID="6" v:groupContext="shape" transform="translate(656.22,-511.193)">
			<title>Sheet.6</title>
			<rect x="0" y="578.268" width="12.7559" height="17.0079" rx="5.66929" ry="5.66929" class="st3"/>
		</g>
		<g id="shape7-13" v:mID="7" v:groupContext="shape" transform="translate(645.165,-511.193)">
			<title>Sheet.7</title>
			<rect x="0" y="578.268" width="24.8032" height="17.0079" rx="5.66929" ry="5.66929" class="st3"/>
		</g>
		<g id="shape8-15" v:mID="8" v:groupContext="shape" transform="translate(628.583,-513.177)">
			<title>Sheet.8</title>
			<desc>S</desc>
			<v:textBlock v:margins="rect(4,4,4,4)" v:tabSpace="42.5197"/>
			<v:textRect cx="10.2756" cy="588.756" width="20.56" height="13.0394"/>
			<rect x="0" y="582.236" width="20.5512" height="13.0394" class="st4"/>
			<text x="7.52" y="592.36" class="st5" v:langID="2057"><v:paragraph v:horizAlign="1"/><v:tabList/>S</text>		</g>
		<g id="shape9-18" v:mID="9" v:groupContext="shape" transform="translate(663.153,-512.61)">
			<title>Sheet.9</title>
			<desc>M</desc>
			<v:textBlock v:margins="rect(4,4,4,4)" v:tabSpace="42.5197"/>
			<v:textRect cx="13.4646" cy="588.189" width="26.93" height="14.1732"/>
			<rect x="0" y="581.102" width="26.9291" height="14.1732" class="st4"/>
			<text x="8.33" y="591.79" class="st5" v:langID="2057"><v:paragraph v:horizAlign="1"/><v:tabList/>M</text>		</g>
		<g id="shape10-21" v:mID="10" v:groupContext="shape" transform="translate(341.827,-509.697)">
			<title>Sheet.10</title>
			<desc>Mission Control</desc>
			<v:textBlock v:margins="rect(4,4,4,4)" v:tabSpace="42.5197"/>
			<v:textRect cx="76" cy="585.276" width="152" height="20"/>
			<rect x="0" y="575.276" width="152" height="20" class="st4"/>
			<text x="37.59" y="588.88" class="st5" v:langID="2057"><v:paragraph v:horizAlign="1"/><v:tabList/>Mission Control</text>		</g>
		<g id="shape12-24" v:mID="12" v:groupContext="shape" transform="translate(152.283,-511.181)">
			<title>Sheet.12</title>
			<rect x="0" y="578.268" width="20.5512" height="17.0079" rx="5.66929" ry="5.66929" class="st3"/>
		</g>
		<g id="shape13-26" v:mID="13" v:groupContext="shape" transform="translate(153.921,-54.7087)">
			<title>Sheet.13</title>
			<rect x="0" y="411.766" width="271.276" height="183.51" rx="5.66929" ry="5.66929" class="st2"/>
		</g>
		<g id="shape14-28" v:mID="14" v:groupContext="shape" transform="translate(87.5454,540.567) rotate(-90)">
			<title>Sheet.14</title>
			<rect x="0" y="411.766" width="183.51" height="183.51" rx="5.66929" ry="5.66929" class="st2"/>
		</g>
		<g id="shape16-30" v:mID="16" v:groupContext="shape" transform="translate(157.606,-253.909)">
			<title>Sheet.16</title>
			<rect x="0" y="380.051" width="122.457" height="215.225" rx="5.66929" ry="5.66929" class="st3"/>
		</g>
		<g id="shape17-32" v:mID="17" v:groupContext="shape" transform="translate(429.449,-54.7087)">
			<title>Sheet.17</title>
			<rect x="0" y="411.766" width="66.6142" height="183.51" rx="5.66929" ry="5.66929" class="st3"/>
		</g>
		<g id="shape18-34" v:mID="18" v:groupContext="shape" transform="translate(172.63,-259.478)">
			<title>Sheet.18</title>
			<rect x="0" y="529.513" width="37.4173" height="65.7631" rx="5.66929" ry="5.66929" class="st6"/>
		</g>
		<g id="shape19-36" v:mID="19" v:groupContext="shape" transform="translate(226.772,-259.478)">
			<title>Sheet.19</title>
			<rect x="0" y="529.513" width="37.4173" height="65.7631" rx="5.66929" ry="5.66929" class="st6"/>
		</g>
		<g id="shape20-38" v:mID="20" v:groupContext="shape" transform="translate(-325.984,221.707) rotate(-90)">
			<title>Sheet.20</title>
			<rect x="0" y="498.615" width="7.08696" height="96.6611" rx="3.54348" ry="3.54348" class="st6"/>
		</g>
		<g id="shape21-40" v:mID="21" v:groupContext="shape" transform="translate(202.252,-344.231)">
			<title>Sheet.21</title>
			<rect x="0" y="529.513" width="37.4173" height="65.7631" rx="5.66929" ry="5.66929" class="st6"/>
		</g>
		<g id="shape22-42" v:mID="22" v:groupContext="shape" transform="translate(-328.252,170.079) rotate(-90)">
			<title>Sheet.22</title>
			<rect x="0" y="498.615" width="37.4173" height="96.6611" rx="5.66929" ry="5.66929" class="st6"/>
		</g>
		<g id="shape23-44" v:mID="23" v:groupContext="shape" transform="translate(432.283,-60.4116)">
			<title>Sheet.23</title>
			<rect x="0" y="563.811" width="60.9449" height="31.4642" rx="5.66929" ry="5.66929" class="st6"/>
		</g>
		<g id="shape24-46" v:mID="24" v:groupContext="shape" transform="translate(432.283,-95.9863)">
			<title>Sheet.24</title>
			<rect x="0" y="563.811" width="60.9449" height="31.4642" rx="5.66929" ry="5.66929" class="st6"/>
		</g>
		<g id="shape25-48" v:mID="25" v:groupContext="shape" transform="translate(432.283,-131.899)">
			<title>Sheet.25</title>
			<rect x="0" y="563.811" width="60.9449" height="31.4642" rx="5.66929" ry="5.66929" class="st6"/>
		</g>
		<g id="shape26-50" v:mID="26" v:groupContext="shape" transform="translate(432.283,-166.852)">
			<title>Sheet.26</title>
			<rect x="0" y="563.811" width="60.9449" height="31.4642" rx="5.66929" ry="5.66929" class="st6"/>
		</g>
		<g id="shape27-52" v:mID="27" v:groupContext="shape" transform="translate(432.283,-200.868)">
			<title>Sheet.27</title>
			<rect x="0" y="563.811" width="60.9449" height="31.4642" rx="5.66929" ry="5.66929" class="st6"/>
		</g>
		<g id="shape28-54" v:mID="28" v:groupContext="shape" transform="translate(699.591,975.118) rotate(180)">
			<title>Sheet.28</title>
			<path d="M0 595.28 L232.26 595.28" class="st7"/>
		</g>
		<g id="shape29-60" v:mID="29" v:groupContext="shape" transform="translate(699.591,1009.13) rotate(180)">
			<title>Sheet.29</title>
			<path d="M0 595.28 L232.26 595.28" class="st7"/>
		</g>
		<g id="shape30-65" v:mID="30" v:groupContext="shape" transform="translate(699.591,1043.15) rotate(180)">
			<title>Sheet.30</title>
			<path d="M0 595.28 L232.26 595.28" class="st7"/>
		</g>
		<g id="shape31-70" v:mID="31" v:groupContext="shape" transform="translate(699.591,1079.17) rotate(180)">
			<title>Sheet.31</title>
			<path d="M0 595.28 L235.66 595.28" class="st7"/>
		</g>
		<g id="shape32-75" v:mID="32" v:groupContext="shape" transform="translate(700.07,1114.02) rotate(179.954)">
			<title>Sheet.32</title>
			<path d="M0 595.28 L232.26 595.28" class="st7"/>
		</g>
		<g id="shape33-80" v:mID="33" v:groupContext="shape" transform="translate(699.591,960.111) rotate(180)">
			<title>Sheet.33</title>
			<path d="M0 595.28 L113.02 595.28" class="st9"/>
		</g>
		<g id="shape34-86" v:mID="34" v:groupContext="shape" transform="translate(699.591,816.378) rotate(180)">
			<title>Sheet.34</title>
			<path d="M0 595.28 L101.68 595.28" class="st9"/>
		</g>
		<g id="shape35-91" v:mID="35" v:groupContext="shape" transform="translate(136.913,-153.071)">
			<title>Sheet.35</title>
			<path d="M0 595.28 L148.07 595.28" class="st9"/>
		</g>
		<g id="shape36-96" v:mID="36" v:groupContext="shape" transform="translate(133.117,-443.914) rotate(-0.365402)">
			<title>Sheet.36</title>
			<path d="M0 595.28 L76.92 595.28" class="st7"/>
		</g>
		<g id="shape37-101" v:mID="37" v:groupContext="shape" transform="translate(138.849,-378.625) rotate(0.186267)">
			<title>Sheet.37</title>
			<path d="M0 595.28 L75.4 595.28" class="st7"/>
		</g>
		<g id="shape38-106" v:mID="38" v:groupContext="shape" transform="translate(131.589,-273.064) rotate(-0.512471)">
			<title>Sheet.38</title>
			<path d="M0 595.28 L54.14 595.28" class="st7"/>
		</g>
		<g id="shape39-111" v:mID="39" v:groupContext="shape" transform="translate(139.625,-310.033) rotate(0.261003)">
			<title>Sheet.39</title>
			<path d="M0 595.28 L108.67 595.28" class="st7"/>
		</g>
		<g id="shape41-116" v:mID="41" v:groupContext="shape" transform="translate(138.229,-517.888) rotate(0.126599)">
			<title>Sheet.41</title>
			<path d="M0 595.28 L25.04 595.28" class="st7"/>
		</g>
		<g id="shape42-121" v:mID="42" v:groupContext="shape" transform="translate(702.192,670.388) rotate(179.75)">
			<title>Sheet.42</title>
			<path d="M0 595.28 L38.08 595.28" class="st7"/>
		</g>
		<g id="shape44-126" v:mID="44" v:groupContext="shape" transform="translate(18,-512.882)">
			<title>Sheet.44</title>
			<desc># Main Menu Button</desc>
			<v:textBlock v:margins="rect(4,4,4,4)" v:tabSpace="42.5197"/>
			<v:textRect cx="59.4567" cy="590.929" width="118.92" height="8.69291"/>
			<rect x="0" y="586.583" width="118.913" height="8.69291" class="st4"/>
			<text x="13.39" y="594.53" class="st5" v:langID="2057"><v:paragraph v:horizAlign="2"/><v:tabList/># Main Menu Button  </text>		</g>
		<g id="shape45-129" v:mID="45" v:groupContext="shape" transform="translate(18,-433.543)">
			<title>Sheet.45</title>
			<desc>Pause</desc>
			<v:textBlock v:margins="rect(4,4,4,4)" v:tabSpace="42.5197"/>
			<v:textRect cx="59.4567" cy="585.276" width="118.92" height="20"/>
			<rect x="0" y="575.276" width="118.913" height="20" class="st4"/>
			<text x="86" y="588.88" class="st5" v:langID="2057"><v:paragraph v:horizAlign="2"/><v:tabList/>Pause</text>		</g>
		<g id="shape46-132" v:mID="46" v:groupContext="shape" transform="translate(18,-368.504)">
			<title>Sheet.46</title>
			<desc>Time/Space Adjustment</desc>
			<v:textBlock v:margins="rect(4,4,4,4)" v:tabSpace="42.5197"/>
			<v:textRect cx="59.4567" cy="585.276" width="118.92" height="20"/>
			<rect x="0" y="575.276" width="118.913" height="20" class="st4"/>
			<text x="57.51" y="581.68" class="st5" v:langID="2057"><v:paragraph v:horizAlign="2"/><v:tabList/>Time/Space <tspan
						x="57.9" dy="1.2em" class="st11">Adjustment</tspan></text>		</g>
		<g id="shape47-136" v:mID="47" v:groupContext="shape" transform="translate(18,-300.472)">
			<title>Sheet.47</title>
			<desc>Up/Down Camera</desc>
			<v:textBlock v:margins="rect(4,4,4,4)" v:tabSpace="42.5197"/>
			<v:textRect cx="59.4567" cy="585.276" width="118.92" height="20"/>
			<rect x="0" y="575.276" width="118.913" height="20" class="st4"/>
			<text x="27.33" y="588.88" class="st5" v:langID="2057"><v:paragraph v:horizAlign="2"/><v:tabList/>Up/Down Camera</text>		</g>
		<g id="shape48-139" v:mID="48" v:groupContext="shape" transform="translate(18,-263.465)">
			<title>Sheet.48</title>
			<desc>Activate Instrument</desc>
			<v:textBlock v:margins="rect(4,4,4,4)" v:tabSpace="42.5197"/>
			<v:textRect cx="59.4567" cy="585.276" width="118.92" height="20"/>
			<rect x="0" y="575.276" width="118.913" height="20" class="st4"/>
			<text x="17.84" y="588.88" class="st5" v:langID="2057"><v:paragraph v:horizAlign="2"/><v:tabList/>Activate Instrument</text>		</g>
		<g id="shape49-142" v:mID="49" v:groupContext="shape" transform="translate(18,-143.071)">
			<title>Sheet.49</title>
			<desc>Camera Monitor/Instruments</desc>
			<v:textBlock v:margins="rect(4,4,4,4)" v:tabSpace="42.5197"/>
			<v:textRect cx="59.4567" cy="585.276" width="118.92" height="20"/>
			<rect x="0" y="575.276" width="118.913" height="20" class="st4"/>
			<text x="29.75" y="581.68" class="st5" v:langID="2057"><v:paragraph v:horizAlign="2"/><v:tabList/>Camera Monitor/<tspan
						x="55.81" dy="1.2em" class="st11">Instruments</tspan></text>		</g>
		<g id="shape50-146" v:mID="50" v:groupContext="shape" transform="translate(699.591,-510.236)">
			<title>Sheet.50</title>
			<desc>Switch-Sat/Mission</desc>
			<v:textBlock v:margins="rect(4,4,4,4)" v:tabSpace="42.5197"/>
			<v:textRect cx="59.4567" cy="585.276" width="118.92" height="20"/>
			<rect x="0" y="575.276" width="118.913" height="20" class="st4"/>
			<text x="4" y="588.88" class="st5" v:langID="2057"><v:paragraph/><v:tabList/>Switch-Sat/Mission</text>		</g>
		<g id="shape51-149" v:mID="51" v:groupContext="shape" transform="translate(699.591,-364.173)">
			<title>Sheet.51</title>
			<desc>3D Viewport/Swap</desc>
			<v:textBlock v:margins="rect(4,4,4,4)" v:tabSpace="42.5197"/>
			<v:textRect cx="59.4567" cy="585.276" width="118.92" height="20"/>
			<rect x="0" y="575.276" width="118.913" height="20" class="st4"/>
			<text x="4" y="588.88" class="st5" v:langID="2057"><v:paragraph/><v:tabList/>3D Viewport/Swap</text>		</g>
		<g id="shape52-152" v:mID="52" v:groupContext="shape" transform="translate(699.591,-224.015)">
			<title>Sheet.52</title>
			<desc>Satellite Stats</desc>
			<v:textBlock v:margins="rect(4,4,4,4)" v:tabSpace="42.5197"/>
			<v:textRect cx="62.1496" cy="588.85" width="124.3" height="12.8504"/>
			<rect x="0" y="582.425" width="124.299" height="12.8504" class="st4"/>
			<text x="4" y="592.45" class="st5" v:langID="2057"><v:paragraph/><v:tabList/>Satellite Stats</text>		</g>
		<g id="shape53-155" v:mID="53" v:groupContext="shape" transform="translate(699.591,-209.008)">
			<title>Sheet.53</title>
			<desc>Instrument A</desc>
			<v:textBlock v:margins="rect(4,4,4,4)" v:tabSpace="42.5197"/>
			<v:textRect cx="62.1496" cy="588.85" width="124.3" height="12.8504"/>
			<rect x="0" y="582.425" width="124.299" height="12.8504" class="st4"/>
			<text x="4" y="592.45" class="st5" v:langID="2057"><v:paragraph/><v:tabList/>Instrument A</text>		</g>
		<g id="shape54-158" v:mID="54" v:groupContext="shape" transform="translate(699.591,-174.992)">
			<title>Sheet.54</title>
			<desc>Instrument C</desc>
			<v:textBlock v:margins="rect(4,4,4,4)" v:tabSpace="42.5197"/>
			<v:textRect cx="62.1496" cy="588.85" width="124.3" height="12.8504"/>
			<rect x="0" y="582.425" width="124.299" height="12.8504" class="st4"/>
			<text x="4" y="592.45" class="st5" v:langID="2057"><v:paragraph/><v:tabList/>Instrument C</text>		</g>
		<g id="shape55-161" v:mID="55" v:groupContext="shape" transform="translate(699.591,-140.976)">
			<title>Sheet.55</title>
			<desc>Instrument B</desc>
			<v:textBlock v:margins="rect(4,4,4,4)" v:tabSpace="42.5197"/>
			<v:textRect cx="62.1496" cy="588.85" width="124.3" height="12.8504"/>
			<rect x="0" y="582.425" width="124.299" height="12.8504" class="st4"/>
			<text x="4" y="592.45" class="st5" v:langID="2057"><v:paragraph/><v:tabList/>Instrument B</text>		</g>
		<g id="shape56-164" v:mID="56" v:groupContext="shape" transform="translate(699.591,-104.882)">
			<title>Sheet.56</title>
			<desc>Instrument A</desc>
			<v:textBlock v:margins="rect(4,4,4,4)" v:tabSpace="42.5197"/>
			<v:textRect cx="62.1496" cy="588.85" width="124.3" height="12.8504"/>
			<rect x="0" y="582.425" width="124.299" height="12.8504" class="st4"/>
			<text x="4" y="592.45" class="st5" v:langID="2057"><v:paragraph/><v:tabList/>Instrument A</text>		</g>
		<g id="shape57-167" v:mID="57" v:groupContext="shape" transform="translate(699.591,-70.1102)">
			<title>Sheet.57</title>
			<desc>Camera</desc>
			<v:textBlock v:margins="rect(4,4,4,4)" v:tabSpace="42.5197"/>
			<v:textRect cx="62.1496" cy="588.85" width="124.3" height="12.8504"/>
			<rect x="0" y="582.425" width="124.299" height="12.8504" class="st4"/>
			<text x="4" y="592.45" class="st5" v:langID="2057"><v:paragraph/><v:tabList/>Camera</text>		</g>
		<g id="shape61-170" v:mID="61" v:groupContext="shape" transform="translate(161.474,-480.315)">
			<title>Sheet.61</title>
			<desc>Space/Time - Contols</desc>
			<v:textBlock v:margins="rect(4,4,4,4)" v:tabSpace="42.5197"/>
			<v:textRect cx="59.4567" cy="585.276" width="118.92" height="20"/>
			<rect x="0" y="575.276" width="118.913" height="20" class="st4"/>
			<text x="7.79" y="588.88" class="st5" v:langID="2057"><v:paragraph v:horizAlign="1"/><v:tabList/>Space/Time - Contols</text>		</g>
		<g id="shape63-173" v:mID="63" v:groupContext="shape" transform="translate(18,-17.0079)">
			<title>Sheet.63</title>
			<desc># Exit/Save - Load - Settings - Profile -Progress Main option...</desc>
			<v:textBlock v:margins="rect(4,4,4,4)" v:tabSpace="42.5197"/>
			<v:textRect cx="59.4567" cy="547.087" width="118.92" height="96.378"/>
			<rect x="0" y="498.898" width="118.913" height="96.378" class="st4"/>
			<text x="13.1" y="521.89" class="st5" v:langID="2057"><v:paragraph v:horizAlign="1"/><v:tabList/># Exit/Save - Load - <tspan
						x="16.33" dy="1.2em" class="st11">Settings </tspan>- Profile -<tspan x="38.51" dy="1.2em" class="st11">Progress<v:newlineChar/></tspan><tspan
						x="18.76" dy="1.2em" class="st11">Main options for </tspan><tspan x="44.47" dy="1.2em" class="st11">game.</tspan></text>		</g>
	</g>
</svg>
