<?xml version="1.0" encoding="UTF-8" standalone="no"?>
<!DOCTYPE svg PUBLIC "-//W3C//DTD SVG 1.1//EN" "http://www.w3.org/Graphics/SVG/1.1/DTD/svg11.dtd">
<!-- Generated by Microsoft Visio, SVG Export Solar System Odyssey-satellite.svg Satellite -->
<svg xmlns="http://www.w3.org/2000/svg" xmlns:xlink="http://www.w3.org/1999/xlink" xmlns:ev="http://www.w3.org/2001/xml-events"
		xmlns:v="http://schemas.microsoft.com/visio/2003/SVGExtensions/" width="11.6929in" height="8.26772in"
		viewBox="0 0 841.89 595.276" xml:space="preserve" color-interpolation-filters="sRGB" class="st16">
	<v:documentProperties v:langID="2057" v:metric="true" v:viewMarkup="false">
		<v:userDefs>
			<v:ud v:nameU="msvNoAutoConnect" v:val="VT0(1):26"/>
		</v:userDefs>
	</v:documentProperties>

	<style type="text/css">
	<![CDATA[
		.st1 {fill:#ffffff;stroke:#000000;stroke-linecap:round;stroke-linejoin:round;stroke-width:0.75}
		.st2 {fill:#000000;stroke:#000000;stroke-linecap:round;stroke-linejoin:round;stroke-width:0.75}
		.st3 {fill:none;stroke:#000000;stroke-linecap:round;stroke-linejoin:round;stroke-width:0.75}
		.st4 {fill:none;stroke:none;stroke-linecap:round;stroke-linejoin:round;stroke-width:0.75}
		.st5 {fill:#000000;font-family:Calibri;font-size:1.00001em}
		.st6 {fill:#7f7f7f;stroke:#000000;stroke-linecap:round;stroke-linejoin:round;stroke-width:0.75}
		.st7 {marker-end:url(#mrkr42-39);stroke:#000000;stroke-linecap:round;stroke-linejoin:round;stroke-width:0.75}
		.st8 {fill:#000000;fill-opacity:1;stroke:#000000;stroke-opacity:1;stroke-width:0.22935779816514}
		.st9 {font-size:1em}
		.st10 {marker-end:url(#mrkr41-78);stroke:#7f7f7f;stroke-linecap:round;stroke-linejoin:round;stroke-width:0.75}
		.st11 {fill:#7f7f7f;fill-opacity:1;stroke:#7f7f7f;stroke-opacity:1;stroke-width:0.22935779816514}
		.st12 {fill:#ffffff;stroke:#000000;stroke-linecap:round;stroke-linejoin:round;stroke-width:0.72}
		.st13 {fill:none;stroke:none;stroke-linecap:round;stroke-linejoin:round;stroke-width:0.75;visibility:hidden}
		.st14 {stroke:#000000;stroke-linecap:round;stroke-linejoin:round;stroke-width:0.75}
		.st15 {fill:#ffffff;stroke:#000000;stroke-linecap:round;stroke-linejoin:round;stroke-width:0.24}
		.st16 {fill:none;fill-rule:evenodd;font-size:12px;overflow:visible;stroke-linecap:square;stroke-miterlimit:3}
	]]>
	</style>

	<defs id="Markers">
		<g id="lend42">
			<path
					d="M 0 0.75 C -0.414214 0.75 -0.75 0.414214 -0.75 0 -0.75 -0.414214 -0.414214 -0.75 0 -0.75 0.414214 -0.75 0.75 -0.414214 0.75 0 0.75 0.414214 0.414214 0.75 0 0.75 Z "
					style="stroke:none"/>
		</g>
		<marker id="mrkr42-39" class="st8" v:arrowType="42" v:arrowSize="2" v:setback="3.27" refX="-3.27" orient="auto"
				markerUnits="strokeWidth" overflow="visible">
			<use xlink:href="#lend42" transform="scale(-4.36,-4.36) "/>
		</marker>
		<g id="lend41">
			<path
					d="M 0.75 0.75 C 0.335786 0.75 0 0.414214 0 0 0 -0.414214 0.335786 -0.75 0.75 -0.75 1.16421 -0.75 1.5 -0.414214 1.5 0 1.5 0.414214 1.16421 0.75 0.75 0.75 Z "
					style="stroke-linecap:round;stroke-linejoin:round;fill:none"/>
		</g>
		<marker id="mrkr41-78" class="st11" v:arrowType="41" v:arrowSize="2" v:setback="6.54" refX="-6.54" orient="auto"
				markerUnits="strokeWidth" overflow="visible">
			<use xlink:href="#lend41" transform="scale(-4.36,-4.36) "/>
		</marker>
	</defs>
	<g v:mID="4" v:index="2" v:groupContext="foregroundPage">
		<title>Satellite</title>
		<v:pageProperties v:drawingScale="0.0393701" v:pageScale="0.0393701" v:drawingUnits="24" v:shadowOffsetX="8.50394"
				v:shadowOffsetY="-8.50394"/>
		<v:layer v:name="Security" v:index="0"/>
		<v:layer v:name="Video Surveilance" v:index="1"/>
		<v:layer v:name="Surveillance" v:index="2"/>
		<g id="shape1-1" v:mID="1" v:groupContext="shape" transform="translate(147.402,-45.3543)">
			<title>Sheet.1</title>
			<rect x="0" y="96.378" width="540.85" height="498.898" class="st1"/>
		</g>
		<g id="shape2-3" v:mID="2" v:groupContext="shape" transform="translate(147.402,-530.646)">
			<title>Sheet.2</title>
			<rect x="0" y="581.669" width="540.85" height="13.6063" class="st2"/>
		</g>
		<g id="shape3-5" v:mID="3" v:groupContext="shape" transform="translate(222.945,-255.118)">
			<title>Sheet.3</title>
			<rect x="0" y="348.87" width="389.764" height="246.406" rx="5.66929" ry="5.66929" class="st2"/>
		</g>
		<g id="shape4-7" v:mID="4" v:groupContext="shape" transform="translate(147.402,-510.236)">
			<title>Sheet.4</title>
			<rect x="0" y="576.354" width="540.85" height="18.9213" class="st3"/>
		</g>
		<g id="shape5-9" v:mID="5" v:groupContext="shape" transform="translate(630.709,-511.193)">
			<title>Sheet.5</title>
			<rect x="0" y="578.268" width="52.4409" height="17.0079" rx="5.66929" ry="5.66929" class="st3"/>
		</g>
		<g id="shape6-11" v:mID="6" v:groupContext="shape" transform="translate(656.22,-511.193)">
			<title>Sheet.6</title>
			<rect x="0" y="578.268" width="12.7559" height="17.0079" rx="5.66929" ry="5.66929" class="st3"/>
		</g>
		<g id="shape7-13" v:mID="7" v:groupContext="shape" transform="translate(645.165,-511.193)">
			<title>Sheet.7</title>
			<rect x="0" y="578.268" width="24.8032" height="17.0079" rx="5.66929" ry="5.66929" class="st3"/>
		</g>
		<g id="shape8-15" v:mID="8" v:groupContext="shape" transform="translate(628.583,-513.177)">
			<title>Sheet.8</title>
			<desc>S</desc>
			<v:textBlock v:margins="rect(4,4,4,4)" v:tabSpace="42.5197"/>
			<v:textRect cx="10.2756" cy="588.756" width="20.56" height="13.0394"/>
			<rect x="0" y="582.236" width="20.5512" height="13.0394" class="st4"/>
			<text x="7.52" y="592.36" class="st5" v:langID="2057"><v:paragraph v:horizAlign="1"/><v:tabList/>S</text>		</g>
		<g id="shape9-18" v:mID="9" v:groupContext="shape" transform="translate(663.153,-512.61)">
			<title>Sheet.9</title>
			<desc>M</desc>
			<v:textBlock v:margins="rect(4,4,4,4)" v:tabSpace="42.5197"/>
			<v:textRect cx="13.4646" cy="588.189" width="26.93" height="14.1732"/>
			<rect x="0" y="581.102" width="26.9291" height="14.1732" class="st4"/>
			<text x="8.33" y="591.79" class="st5" v:langID="2057"><v:paragraph v:horizAlign="1"/><v:tabList/>M</text>		</g>
		<g id="shape10-21" v:mID="10" v:groupContext="shape" transform="translate(341.827,-509.697)">
			<title>Sheet.10</title>
			<desc>Build Your Satellite...</desc>
			<v:textBlock v:margins="rect(4,4,4,4)" v:tabSpace="42.5197"/>
			<v:textRect cx="76" cy="585.276" width="152" height="20"/>
			<rect x="0" y="575.276" width="152" height="20" class="st4"/>
			<text x="25.34" y="588.88" class="st5" v:langID="2057"><v:paragraph v:horizAlign="1"/><v:tabList/>Build Your Satellite...</text>		</g>
		<g id="shape12-24" v:mID="12" v:groupContext="shape" transform="translate(152.283,-511.181)">
			<title>Sheet.12</title>
			<rect x="0" y="578.268" width="20.5512" height="17.0079" rx="5.66929" ry="5.66929" class="st3"/>
		</g>
		<g id="shape14-26" v:mID="14" v:groupContext="shape" transform="translate(87.5454,540.567) rotate(-90)">
			<title>Sheet.14</title>
			<rect x="0" y="411.766" width="176.598" height="183.51" rx="5.66929" ry="5.66929" class="st2"/>
		</g>
		<g id="shape20-28" v:mID="20" v:groupContext="shape" transform="translate(189.496,787.748) rotate(180)">
			<title>Sheet.20</title>
			<rect x="0" y="498.615" width="7.08696" height="96.6611" rx="3.54348" ry="3.54348" class="st6"/>
		</g>
		<g id="shape21-30" v:mID="21" v:groupContext="shape" transform="translate(-376.442,239.103) rotate(-90)">
			<title>Sheet.21</title>
			<rect x="0" y="529.513" width="17.0079" height="65.7631" rx="5.66929" ry="5.66929" class="st6"/>
		</g>
		<g id="shape22-32" v:mID="22" v:groupContext="shape" transform="translate(89.2913,127.075) rotate(-90)">
			<title>Sheet.22</title>
			<rect x="0" y="528.661" width="33.3228" height="66.6142" rx="5.66929" ry="5.66929" class="st6"/>
		</g>
		<g id="shape41-34" v:mID="41" v:groupContext="shape" transform="translate(138.229,-517.888) rotate(0.126599)">
			<title>Sheet.41</title>
			<path d="M0 595.28 L25.04 595.28" class="st7"/>
		</g>
		<g id="shape42-40" v:mID="42" v:groupContext="shape" transform="translate(702.192,670.388) rotate(179.75)">
			<title>Sheet.42</title>
			<path d="M0 595.28 L38.08 595.28" class="st7"/>
		</g>
		<g id="shape44-45" v:mID="44" v:groupContext="shape" transform="translate(18,-512.882)">
			<title>Sheet.44</title>
			<desc># Main Menu Button</desc>
			<v:textBlock v:margins="rect(4,4,4,4)" v:tabSpace="42.5197"/>
			<v:textRect cx="59.4567" cy="590.929" width="118.92" height="8.69291"/>
			<rect x="0" y="586.583" width="118.913" height="8.69291" class="st4"/>
			<text x="13.39" y="594.53" class="st5" v:langID="2057"><v:paragraph v:horizAlign="2"/><v:tabList/># Main Menu Button  </text>		</g>
		<g id="shape50-48" v:mID="50" v:groupContext="shape" transform="translate(699.591,-510.236)">
			<title>Sheet.50</title>
			<desc>Switch-Sat/Mission</desc>
			<v:textBlock v:margins="rect(4,4,4,4)" v:tabSpace="42.5197"/>
			<v:textRect cx="59.4567" cy="585.276" width="118.92" height="20"/>
			<rect x="0" y="575.276" width="118.913" height="20" class="st4"/>
			<text x="4" y="588.88" class="st5" v:langID="2057"><v:paragraph/><v:tabList/>Switch-Sat/Mission</text>		</g>
		<g id="shape51-51" v:mID="51" v:groupContext="shape" transform="translate(699.591,-340.157)">
			<title>Sheet.51</title>
			<desc>3D Viewport/Swap</desc>
			<v:textBlock v:margins="rect(4,4,4,4)" v:tabSpace="42.5197"/>
			<v:textRect cx="59.4567" cy="585.276" width="118.92" height="20"/>
			<rect x="0" y="575.276" width="118.913" height="20" class="st4"/>
			<text x="4" y="588.88" class="st5" v:langID="2057"><v:paragraph/><v:tabList/>3D Viewport/Swap</text>		</g>
		<g id="shape63-54" v:mID="63" v:groupContext="shape" transform="translate(18,-17.0079)">
			<title>Sheet.63</title>
			<desc># Exit/Save - Load - Settings - Profile -Progress Main option...</desc>
			<v:textBlock v:margins="rect(4,4,4,4)" v:tabSpace="42.5197"/>
			<v:textRect cx="59.4567" cy="547.087" width="118.92" height="96.378"/>
			<rect x="0" y="498.898" width="118.913" height="96.378" class="st4"/>
			<text x="13.1" y="521.89" class="st5" v:langID="2057"><v:paragraph v:horizAlign="1"/><v:tabList/># Exit/Save - Load - <tspan
						x="16.33" dy="1.2em" class="st9">Settings </tspan>- Profile -<tspan x="38.51" dy="1.2em" class="st9">Progress<v:newlineChar/></tspan><tspan
						x="18.76" dy="1.2em" class="st9">Main options for </tspan><tspan x="44.47" dy="1.2em" class="st9">game.</tspan></text>		</g>
		<g id="shape64-61" v:mID="64" v:groupContext="shape" transform="translate(89.2913,168.156) rotate(-90)">
			<title>Sheet.64</title>
			<rect x="0" y="528.661" width="33.3228" height="66.6142" rx="5.66929" ry="5.66929" class="st6"/>
		</g>
		<g id="shape65-63" v:mID="65" v:groupContext="shape" transform="translate(89.2913,209.238) rotate(-90)">
			<title>Sheet.65</title>
			<rect x="0" y="528.661" width="33.3228" height="66.6142" rx="5.66929" ry="5.66929" class="st6"/>
		</g>
		<g id="shape66-65" v:mID="66" v:groupContext="shape" transform="translate(89.2913,250.32) rotate(-90)">
			<title>Sheet.66</title>
			<rect x="0" y="528.661" width="33.3228" height="66.6142" rx="5.66929" ry="5.66929" class="st6"/>
		</g>
		<g id="shape67-67" v:mID="67" v:groupContext="shape" transform="translate(89.2913,291.402) rotate(-90)">
			<title>Sheet.67</title>
			<rect x="0" y="528.661" width="33.3228" height="66.6142" rx="5.66929" ry="5.66929" class="st6"/>
		</g>
		<g id="shape68-69" v:mID="68" v:groupContext="shape" transform="translate(155.214,-427.981)">
			<title>Sheet.68</title>
			<path d="M0 574.02 L22.68 551.34 L22.68 595.28 L0 574.02 Z" class="st6"/>
		</g>
		<g id="shape69-71" v:mID="69" v:groupContext="shape" transform="translate(213.543,718.633) rotate(180)">
			<title>Sheet.69</title>
			<path d="M0 574.02 L22.68 551.34 L22.68 595.28 L0 574.02 Z" class="st6"/>
		</g>
		<g id="shape70-73" v:mID="70" v:groupContext="shape" transform="translate(700.016,839.764) rotate(180)">
			<title>Sheet.70</title>
			<path d="M0 595.28 L152.18 595.28" class="st10"/>
		</g>
		<g id="group129-79" transform="translate(292.852,-263.348)" v:mID="129" v:groupContext="group">
			<title>Sheet.129</title>
			<g id="group117-80" transform="translate(506.283,18.2897) rotate(44.9)" v:mID="117" v:groupContext="group">
				<v:userDefs>
					<v:ud v:nameU="visVersion" v:val="VT0(15):26"/>
				</v:userDefs>
				<title>Square box.117</title>
				<g id="shape118-81" v:mID="118" v:groupContext="shape">
					<title>Sheet.118</title>
					<path d="M38.87 595.28 A3.06654 3.06654 -180 0 0 43.19 594.89 L43.19 591.76 A3.06654 3.06654 -180 0 0 38.87 591.37
								 L4.32 591.37 A3.06654 3.06654 -180 0 0 -0 591.76 L0 594.89 A3.06654 3.06654 -180 0 0 4.32 595.28
								 L38.87 595.28 Z" class="st12"/>
				</g>
				<g id="shape119-83" v:mID="119" v:groupContext="shape" transform="translate(0,25.2346)">
					<title>Sheet.119</title>
					<rect x="0" y="570.041" width="43.1914" height="25.2346" class="st13"/>
				</g>
			</g>
			<g id="group114-85" transform="translate(553.753,66.042) rotate(44.9)" v:mID="114" v:groupContext="group">
				<v:userDefs>
					<v:ud v:nameU="visVersion" v:val="VT0(15):26"/>
				</v:userDefs>
				<title>Square box.114</title>
				<g id="shape115-86" v:mID="115" v:groupContext="shape">
					<title>Sheet.115</title>
					<path d="M38.87 595.28 A3.06654 3.06654 -180 0 0 43.19 594.89 L43.19 591.76 A3.06654 3.06654 -180 0 0 38.87 591.37
								 L4.32 591.37 A3.06654 3.06654 -180 0 0 -0 591.76 L0 594.89 A3.06654 3.06654 -180 0 0 4.32 595.28
								 L38.87 595.28 Z" class="st12"/>
				</g>
				<g id="shape116-88" v:mID="116" v:groupContext="shape" transform="translate(0,25.2346)">
					<title>Sheet.116</title>
					<rect x="0" y="570.041" width="43.1914" height="25.2346" class="st13"/>
				</g>
			</g>
			<g id="shape75-90" v:mID="75" v:groupContext="shape" transform="translate(44.3318,-133.109)">
				<title>Sheet.75</title>
				<path d="M64.18 595.28 L66.85 592.6 L0 525.75" class="st14"/>
			</g>
			<g id="shape76-93" v:mID="76" v:groupContext="shape" transform="translate(-212.538,977.955) rotate(-135)">
				<title>Sheet.76</title>
				<path d="M0 595.28 L94.54 595.28" class="st14"/>
			</g>
			<g id="shape77-96" v:mID="77" v:groupContext="shape" transform="translate(-215.289,980.706) rotate(-135)">
				<title>Sheet.77</title>
				<path d="M0 595.28 L94.54 595.28" class="st14"/>
			</g>
			<g id="shape78-99" v:mID="78" v:groupContext="shape" transform="translate(-312.408,883.09) rotate(-135)">
				<title>Sheet.78</title>
				<path d="M0 595.28 L94.54 595.28" class="st14"/>
			</g>
			<g id="shape79-102" v:mID="79" v:groupContext="shape" transform="translate(-379.891,-24.974) rotate(-45.0861)">
				<title>Sheet.79</title>
				<path d="M0 595.28 L3.78 595.28" class="st14"/>
			</g>
			<g id="shape80-105" v:mID="80" v:groupContext="shape" transform="translate(-215.289,138.859) rotate(-45)">
				<title>Sheet.80</title>
				<path d="M0 595.28 L3.89 595.28" class="st14"/>
			</g>
			<g id="shape81-108" v:mID="81" v:groupContext="shape" transform="translate(129.371,0)">
				<title>Sheet.81</title>
				<path d="M0 522.75 L43.52 479.24 L120.58 556.3 L81.6 595.28 L0 522.75 Z" class="st1"/>
			</g>
			<g id="shape82-110" v:mID="82" v:groupContext="shape" transform="translate(120.579,952.375) rotate(180)">
				<title>Sheet.82</title>
				<path d="M0 522.75 L43.52 479.24 L120.58 556.3 L81.6 595.28 L0 522.75 Z" class="st1"/>
			</g>
			<g id="shape83-112" v:mID="83" v:groupContext="shape" transform="translate(441.869,-45.7935) rotate(45)">
				<title>Sheet.83</title>
				<path d="M0 595.28 L108.98 595.28" class="st14"/>
			</g>
			<g id="shape84-115" v:mID="84" v:groupContext="shape" transform="translate(-406.93,-11.1508) rotate(-45)">
				<title>Sheet.84</title>
				<path d="M0 595.28 L56.06 595.28" class="st14"/>
			</g>
			<g id="shape85-118" v:mID="85" v:groupContext="shape" transform="translate(-393.028,3.04756) rotate(-45)">
				<title>Sheet.85</title>
				<path d="M0 595.28 L57.45 595.28" class="st14"/>
			</g>
			<g id="shape86-121" v:mID="86" v:groupContext="shape" transform="translate(-379.105,16.9707) rotate(-45)">
				<title>Sheet.86</title>
				<path d="M0 595.28 L58.61 595.28" class="st14"/>
			</g>
			<g id="shape87-124" v:mID="87" v:groupContext="shape" transform="translate(-365.307,30.7687) rotate(-45)">
				<title>Sheet.87</title>
				<path d="M0 595.28 L59.76 595.28" class="st14"/>
			</g>
			<g id="shape88-127" v:mID="88" v:groupContext="shape" transform="translate(-352.676,43.3996) rotate(-45)">
				<title>Sheet.88</title>
				<path d="M0 595.28 L60.81 595.28" class="st14"/>
			</g>
			<g id="shape89-130" v:mID="89" v:groupContext="shape" transform="translate(-191.182,998.939) rotate(-135.1)">
				<title>Sheet.89</title>
				<path d="M0 595.28 L108.98 595.28" class="st14"/>
			</g>
			<g id="shape90-133" v:mID="90" v:groupContext="shape" transform="translate(657.555,962.815) rotate(134.9)">
				<title>Sheet.90</title>
				<path d="M0 595.28 L56.06 595.28" class="st14"/>
			</g>
			<g id="shape91-136" v:mID="91" v:groupContext="shape" transform="translate(643.629,948.641) rotate(134.9)">
				<title>Sheet.91</title>
				<path d="M0 595.28 L57.45 595.28" class="st14"/>
			</g>
			<g id="shape92-139" v:mID="92" v:groupContext="shape" transform="translate(629.682,934.742) rotate(134.9)">
				<title>Sheet.92</title>
				<path d="M0 595.28 L58.61 595.28" class="st14"/>
			</g>
			<g id="shape93-142" v:mID="93" v:groupContext="shape" transform="translate(615.86,920.968) rotate(134.9)">
				<title>Sheet.93</title>
				<path d="M0 595.28 L59.76 595.28" class="st14"/>
			</g>
			<g id="shape94-145" v:mID="94" v:groupContext="shape" transform="translate(603.207,908.36) rotate(134.9)">
				<title>Sheet.94</title>
				<path d="M0 595.28 L60.81 595.28" class="st14"/>
			</g>
			<g id="group111-148" transform="translate(499.013,69.4143) rotate(44.9)" v:mID="111" v:groupContext="group">
				<v:userDefs>
					<v:ud v:nameU="visVersion" v:val="VT0(15):26"/>
				</v:userDefs>
				<title>Square box</title>
				<g id="shape112-149" v:mID="112" v:groupContext="shape">
					<title>Sheet.112</title>
					<path d="M38.87 595.28 A6.40619 6.40619 -180 0 0 43.19 587.31 L43.19 523.6 A6.40619 6.40619 -180 0 0 38.87 515.64
								 L4.32 515.64 A6.40619 6.40619 -180 0 0 0 523.6 L0 587.31 A6.40619 6.40619 -180 0 0 4.32 595.28 L38.87
								 595.28 Z" class="st12"/>
				</g>
				<g id="shape113-151" v:mID="113" v:groupContext="shape" transform="translate(0,25.2346)">
					<title>Sheet.113</title>
					<rect x="0" y="570.041" width="43.1914" height="25.2346" class="st13"/>
				</g>
			</g>
			<g id="group100-153" transform="translate(-290.317,69.7224) rotate(-45)" v:mID="100" v:groupContext="group"
					v:layerMember="0;1;2">
				<v:custProps>
					<v:cp v:nameU="Mount" v:lbl="Mount type" v:type="1"
							v:format="P - Pedestal;T - Turnstile;S - Surface;F - Flush;R - Rack;M - Mullion;D - Desk;W - Wall;C - Ceiling;H - Hidden"
							v:langID="1033" v:val="VT4(C - Ceiling)"/>
					<v:cp v:nameU="ShapeClass" v:lbl="Shape class" v:invis="true" v:langID="1033" v:val="VT4(Building Component)"/>
					<v:cp v:nameU="ShapeType" v:lbl="Shape type" v:invis="true" v:langID="1033" v:val="VT4(Electrical Fixture)"/>
					<v:cp v:nameU="SubShapeType" v:lbl="Subshape type" v:invis="true" v:langID="1033" v:val="VT4(Equipment)"/>
					<v:cp v:nameU="BaseElevation" v:lbl="Base elevation" v:type="2" v:langID="1033"/>
				</v:custProps>
				<v:userDefs>
					<v:ud v:nameU="visVersion" v:val="VT0(15):26"/>
					<v:ud v:nameU="SolSH" v:val="VT4({5D50005D-537C-4738-9C46-130C74335A6D})"/>
					<v:ud v:nameU="ShapeClass" v:prompt="Building Component" v:val="VT0(3):26"/>
					<v:ud v:nameU="ShapeType" v:prompt="Electrical Fixture" v:val="VT0(12):26"/>
					<v:ud v:nameU="SubShapeType" v:prompt="Equipment" v:val="VT0(37):26"/>
					<v:ud v:nameU="HasText" v:val="VT0(0):5"/>
				</v:userDefs>
				<title>Camera</title>
				<g id="shape101-154" v:mID="101" v:groupContext="shape" v:layerMember="0;1;2"
						transform="translate(42.5197,-21.1446)">
					<title>Sheet.101</title>
					<v:textBlock v:margins="rect(0,0,0,0)" v:tabSpace="42.5197"/>
					<v:textRect cx="6.55748" cy="588.074" width="13.12" height="14.4037"/>
					<text x="5.36" y="591.67" class="st5" v:langID="2057"><v:paragraph v:indentLeft="4" v:horizAlign="1"/><v:tabList/>C</text>				</g>
				<g id="shape102-156" v:mID="102" v:groupContext="shape" v:layerMember="0;1;2">
					<title>Sheet.102</title>
					<path d="M0 595.28 L42.52 595.28 L42.52 566.93 L0 566.93 L0 595.28 ZM42.52 588.19 L42.52 574.02 L56.69 574.02
								 L56.69 588.19 L42.52 588.19 Z" class="st15"/>
				</g>
			</g>
			<g id="shape128-158" v:mID="128" v:groupContext="shape" transform="translate(-313.62,913.506) rotate(-133.363)">
				<title>Sheet.128</title>
				<path d="M0 587.69 C2.83 587.03 1.44 582.04 2.21 580.81 C2.94 579.64 5.61 581.84 7.51 583.86 C9.08 585.53 10.13 587.07
							 11.07 589.18 C11.69 590.57 12.27 592.2 12.78 592.74 C14.09 594.13 14.91 588.09 16.36 584.81 C17.72 581.75
							 19.65 581.11 22.11 582.44 C24.28 583.62 26.87 586.32 28.34 589.89 C29.29 592.22 29.77 594.91 30.29 595.24
							 C30.59 595.43 30.91 594.84 31.46 594.01 C32.48 592.46 34.3 590.06 35.09 587.69" class="st14"/>
			</g>
		</g>
		<g id="shape34-161" v:mID="34" v:groupContext="shape" transform="translate(699.591,803.445) rotate(180)">
			<title>Sheet.34</title>
			<path d="M0 595.28 L278.13 595.28" class="st10"/>
		</g>
		<g id="shape130-166" v:mID="130" v:groupContext="shape" transform="translate(699.591,-376.85)">
			<title>Sheet.130</title>
			<desc>Satellite/Inventory</desc>
			<v:textBlock v:margins="rect(4,4,4,4)" v:tabSpace="42.5197"/>
			<v:textRect cx="59.4567" cy="585.276" width="118.92" height="20"/>
			<rect x="0" y="575.276" width="118.913" height="20" class="st4"/>
			<text x="4" y="588.88" class="st5" v:langID="2057"><v:paragraph/><v:tabList/>Satellite/Inventory</text>		</g>
		<g id="shape131-169" v:mID="131" v:groupContext="shape" transform="translate(-258.931,540.567) rotate(-90)">
			<title>Sheet.131</title>
			<rect x="0" y="411.766" width="176.598" height="183.51" rx="5.66929" ry="5.66929" class="st2"/>
		</g>
		<g id="shape132-171" v:mID="132" v:groupContext="shape" transform="translate(-98.9291,540.567) rotate(-90)">
			<title>Sheet.132</title>
			<rect x="0" y="438.661" width="176.598" height="156.614" rx="5.66929" ry="5.66929" class="st2"/>
		</g>
		<g id="shape133-173" v:mID="133" v:groupContext="shape" transform="translate(89.2913,331.928) rotate(-90)">
			<title>Sheet.133</title>
			<rect x="0" y="528.661" width="33.3228" height="66.6142" rx="5.66929" ry="5.66929" class="st6"/>
		</g>
		<g id="shape134-175" v:mID="134" v:groupContext="shape" transform="translate(699.591,992.126) rotate(180)">
			<title>Sheet.134</title>
			<path d="M0 595.28 L106.71 595.28" class="st10"/>
		</g>
		<g id="shape135-180" v:mID="135" v:groupContext="shape" transform="translate(699.591,1048.82) rotate(180)">
			<title>Sheet.135</title>
			<path d="M0 595.28 L270.67 595.28" class="st10"/>
		</g>
		<g id="shape136-185" v:mID="136" v:groupContext="shape" transform="translate(136.913,-198.425)">
			<title>Sheet.136</title>
			<path d="M0 595.28 L86.67 595.28" class="st10"/>
		</g>
		<g id="shape138-190" v:mID="138" v:groupContext="shape" transform="translate(133.128,-449.102) rotate(-0.364376)">
			<title>Sheet.138</title>
			<path d="M0 595.28 L30.71 595.28" class="st7"/>
		</g>
		<g id="shape139-195" v:mID="139" v:groupContext="shape" transform="translate(134.526,-364.07) rotate(-0.229823)">
			<title>Sheet.139</title>
			<path d="M0 595.28 L50.13 595.28" class="st7"/>
		</g>
		<g id="shape140-200" v:mID="140" v:groupContext="shape" transform="translate(-375.827,335.797) rotate(-90)">
			<title>Sheet.140</title>
			<rect x="0" y="528.661" width="33.3228" height="66.6142" rx="5.66929" ry="5.66929" class="st6"/>
		</g>
		<g id="shape141-202" v:mID="141" v:groupContext="shape" transform="translate(136.913,-276.378)">
			<title>Sheet.141</title>
			<path d="M0 595.28 L51.97 595.28" class="st7"/>
		</g>
		<g id="shape142-207" v:mID="142" v:groupContext="shape" transform="translate(201.26,-231.307)">
			<title>Sheet.142</title>
			<desc>Planets (Target)</desc>
			<v:textBlock v:margins="rect(4,4,4,4)" v:tabSpace="42.5197"/>
			<v:textRect cx="49.6063" cy="586.772" width="99.22" height="17.0079"/>
			<rect x="0" y="578.268" width="99.2126" height="17.0079" class="st4"/>
			<text x="11.06" y="590.37" class="st5" v:langID="2057"><v:paragraph v:horizAlign="1"/><v:tabList/>Planets (Target)</text>		</g>
		<g id="shape143-210" v:mID="143" v:groupContext="shape" transform="translate(342.039,-230.945)">
			<title>Sheet.143</title>
			<desc>Inventory</desc>
			<v:textBlock v:margins="rect(4,4,4,4)" v:tabSpace="42.5197"/>
			<v:textRect cx="76" cy="585.276" width="152" height="20"/>
			<rect x="0" y="575.276" width="152" height="20" class="st4"/>
			<text x="52.51" y="588.88" class="st5" v:langID="2057"><v:paragraph v:horizAlign="1"/><v:tabList/>Inventory</text>		</g>
		<g id="shape144-213" v:mID="144" v:groupContext="shape" transform="translate(515.066,-230.945)">
			<title>Sheet.144</title>
			<desc>Launch Calendar</desc>
			<v:textBlock v:margins="rect(4,4,4,4)" v:tabSpace="42.5197"/>
			<v:textRect cx="76" cy="585.276" width="152" height="20"/>
			<rect x="0" y="575.276" width="152" height="20" class="st4"/>
			<text x="35.55" y="588.88" class="st5" v:langID="2057"><v:paragraph v:horizAlign="1"/><v:tabList/>Launch Calendar</text>		</g>
		<g id="shape145-216" v:mID="145" v:groupContext="shape" transform="translate(18,-444.85)">
			<title>Sheet.145</title>
			<desc>Sat/Item View Selector</desc>
			<v:textBlock v:margins="rect(4,4,4,4)" v:tabSpace="42.5197"/>
			<v:textRect cx="59.4567" cy="590.929" width="118.92" height="8.69291"/>
			<rect x="0" y="586.583" width="118.913" height="8.69291" class="st4"/>
			<text x="45.57" y="587.33" class="st5" v:langID="2057"><v:paragraph v:horizAlign="2"/><v:tabList/>Sat/Item View <tspan
						x="75.1" dy="1.2em" class="st9">Selector</tspan></text>		</g>
		<g id="shape146-220" v:mID="146" v:groupContext="shape" transform="translate(18,-359.811)">
			<title>Sheet.146</title>
			<desc>Zoom Adjustment</desc>
			<v:textBlock v:margins="rect(4,4,4,4)" v:tabSpace="42.5197"/>
			<v:textRect cx="59.4567" cy="590.929" width="118.92" height="8.69291"/>
			<rect x="0" y="586.583" width="118.913" height="8.69291" class="st4"/>
			<text x="27.32" y="594.53" class="st5" v:langID="2057"><v:paragraph v:horizAlign="2"/><v:tabList/>Zoom Adjustment</text>		</g>
		<g id="shape147-223" v:mID="147" v:groupContext="shape" transform="translate(18,-272.031)">
			<title>Sheet.147</title>
			<desc>Progress Shortcut</desc>
			<v:textBlock v:margins="rect(4,4,4,4)" v:tabSpace="42.5197"/>
			<v:textRect cx="59.4567" cy="590.929" width="118.92" height="8.69291"/>
			<rect x="0" y="586.583" width="118.913" height="8.69291" class="st4"/>
			<text x="28.55" y="594.53" class="st5" v:langID="2057"><v:paragraph v:horizAlign="2"/><v:tabList/>Progress Shortcut</text>		</g>
		<g id="shape148-226" v:mID="148" v:groupContext="shape" transform="translate(18,-194.079)">
			<title>Sheet.148</title>
			<desc>Planet Selector</desc>
			<v:textBlock v:margins="rect(4,4,4,4)" v:tabSpace="42.5197"/>
			<v:textRect cx="59.4567" cy="590.929" width="118.92" height="8.69291"/>
			<rect x="0" y="586.583" width="118.913" height="8.69291" class="st4"/>
			<text x="41.39" y="594.53" class="st5" v:langID="2057"><v:paragraph v:horizAlign="2"/><v:tabList/>Planet Selector</text>		</g>
		<g id="shape149-229" v:mID="149" v:groupContext="shape" transform="translate(699.591,-188.425)">
			<title>Sheet.149</title>
			<desc>Displays an Interactive Calendar</desc>
			<v:textBlock v:margins="rect(4,4,4,4)" v:tabSpace="42.5197"/>
			<v:textRect cx="59.4567" cy="585.276" width="118.92" height="20"/>
			<rect x="0" y="575.276" width="118.913" height="20" class="st4"/>
			<text x="4" y="581.68" class="st5" v:langID="2057"><v:paragraph/><v:tabList/>Displays an Interactive <tspan x="4"
						dy="1.2em" class="st9">Calendar</tspan></text>		</g>
		<g id="shape150-233" v:mID="150" v:groupContext="shape" transform="translate(699.591,-130.394)">
			<title>Sheet.150</title>
			<desc>Your available Items/info</desc>
			<v:textBlock v:margins="rect(4,4,4,4)" v:tabSpace="42.5197"/>
			<v:textRect cx="59.4567" cy="585.276" width="118.92" height="20"/>
			<rect x="0" y="575.276" width="118.913" height="20" class="st4"/>
			<text x="4" y="581.68" class="st5" v:langID="2057"><v:paragraph/><v:tabList/>Your available Items/<tspan x="4"
						dy="1.2em" class="st9">info </tspan> </text>		</g>
		<g id="shape151-237" v:mID="151" v:groupContext="shape" transform="translate(699.591,705.26) rotate(180)">
			<title>Sheet.151</title>
			<path d="M0 595.28 L45.17 595.28" class="st7"/>
		</g>
		<g id="shape152-242" v:mID="152" v:groupContext="shape" transform="translate(699.591,-476.22)">
			<title>Sheet.152</title>
			<desc>Slot Select/TBC</desc>
			<v:textBlock v:margins="rect(4,4,4,4)" v:tabSpace="42.5197"/>
			<v:textRect cx="59.4567" cy="585.276" width="118.92" height="20"/>
			<rect x="0" y="575.276" width="118.913" height="20" class="st4"/>
			<text x="4" y="588.88" class="st5" v:langID="2057"><v:paragraph/><v:tabList/>Slot Select/TBC</text>		</g>
		<g id="shape153-245" v:mID="153" v:groupContext="shape" transform="translate(1098.97,551.402) rotate(137.862)">
			<title>Sheet.153</title>
			<path d="M0 595.28 L61.77 595.28" class="st7"/>
		</g>
		<g id="shape154-250" v:mID="154" v:groupContext="shape" transform="translate(1209.73,416.758) rotate(121.021)">
			<title>Sheet.154</title>
			<path d="M0 595.28 L95.46 595.28" class="st7"/>
		</g>
	</g>
</svg>
